#N canvas 0 50 705 523 10;
#X obj 173 316 bng 15 250 50 0 empty empty empty 17 7 0 10 -262144
-1 -1;
#X msg 221 174 0;
#X obj 146 178 spigot;
#X obj 228 93 loadbang;
#X msg 228 126 1;
#X floatatom 68 151 5 0 0 0 - - -, f 5;
#X obj 173 348 outlet;
#X obj 159 8 inlet;
#X obj 331 172 r trigger_happened;
#X obj 51 273 s trigger_happened;
#X obj 331 369 bng 15 250 50 0 empty empty empty 17 7 0 10 -262144
-1 -1;
#X obj 146 209 t b b;
#X obj 331 203 t b b;
#X obj 331 232 delay \$1;
#X text 352 365 time passed with no triggers;
#X obj 159 62 sel 1 0;
#X connect 0 0 6 0;
#X connect 1 0 2 1;
#X connect 2 0 11 0;
#X connect 3 0 4 0;
#X connect 4 0 2 1;
#X connect 7 0 15 0;
#X connect 7 0 5 0;
#X connect 8 0 12 0;
#X connect 11 0 9 0;
#X connect 11 1 0 0;
#X connect 12 0 13 0;
#X connect 12 1 1 0;
#X connect 13 0 4 0;
#X connect 13 0 10 0;
#X connect 15 0 2 0;
#X connect 15 1 12 0;
