#N canvas 716 95 1085 642 10;
#X obj 60 109 oscparse;
#X obj 60 71 netreceive -u -b;
#X msg 60 43 listen 8000;
#X floatatom 42 233 5 0 0 0 - - -, f 5;
#X obj 60 136 list trim;
#X floatatom 89 234 5 0 0 0 - - -, f 5;
#X floatatom 140 229 5 0 0 0 - - -, f 5;
#X obj 233 137 tgl 15 0 empty empty empty 17 7 0 10 -262144 -1 -1 0
1;
#X obj 335 138 tgl 15 0 empty empty empty 17 7 0 10 -262144 -1 -1 0
1;
#X obj 128 258 s roll;
#X obj 60 17 loadbang;
#X obj 328 35 r roll;
#X obj 2 260 s yaw;
#X obj 70 260 s pitch;
#X obj 450 50 r pitch;
#X obj 450 137 tgl 15 0 empty empty empty 17 7 0 10 -262144 -1 -1 0
1;
#X text 478 77 top;
#X obj 99 568 cyclone/play~ intro;
#X obj 653 14 bng 15 250 50 0 empty empty empty 17 7 0 10 -262144 -1
-1;
#X obj 100 602 dac~ 1 2;
#X msg 99 544 start;
#X text 96 356 sleep/wake logic;
#X obj 906 31 old_shoe;
#X obj 99 463 r roll;
#N canvas 577 100 351 116 load_intro 0;
#X obj 32 52 soundfiler;
#X obj 31 76 outlet;
#X obj 241 55 table intro;
#X msg 32 25 read -resize intro.wav intro;
#X obj 32 -3 inlet;
#X connect 0 0 1 0;
#X connect 3 0 0 0;
#X connect 4 0 3 0;
#X restore 653 47 pd load_intro;
#N canvas 577 100 351 116 load_medial 0;
#X obj 32 52 soundfiler;
#X obj 31 76 outlet;
#X obj 32 -3 inlet;
#X msg 32 25 read -resize 01med.wav medial;
#X obj 241 55 table medial;
#X connect 0 0 1 0;
#X connect 2 0 3 0;
#X connect 3 0 0 0;
#X restore 675 71 pd load_medial;
#X obj 227 600 dac~ 1 2;
#X msg 226 542 start;
#N canvas 0 50 894 814 intro_logic 0;
#X obj 113 143 change;
#X obj 113 116 int;
#X obj 112 92 abs;
#X obj 78 285 bng 15 250 50 0 empty empty empty 17 7 0 10 -262144 -1
-1;
#X obj 200 287 s reset;
#X obj 239 310 delay 2000;
#X msg 186 343 1;
#X msg 144 284 0;
#X obj 78 192 spigot;
#X obj 161 182 loadbang;
#X msg 161 215 1;
#X text 332 218 10 seconds of stillness;
#X obj 78 248 t b b;
#X obj 304 252 bng 15 250 50 0 empty empty empty 17 7 0 10 -262144
-1 -1;
#X floatatom 8 192 5 0 0 0 - - -, f 5;
#X msg 200 254 0;
#X obj 257 196 bng 15 250 50 0 empty empty empty 17 7 0 10 -262144
-1 -1;
#X obj 258 218 delay 10000;
#X obj 214 404 line;
#X msg 214 368 1 1000;
#X msg 336 285 0 2000;
#X obj 214 429 outlet;
#X obj 78 382 outlet;
#X obj 112 64 inlet;
#X obj 105 321 s trigger_1;
#X connect 0 0 8 0;
#X connect 0 0 16 0;
#X connect 0 0 14 0;
#X connect 1 0 0 0;
#X connect 2 0 1 0;
#X connect 3 0 19 0;
#X connect 3 0 22 0;
#X connect 5 0 6 0;
#X connect 6 0 4 0;
#X connect 7 0 4 0;
#X connect 7 0 8 1;
#X connect 8 0 12 0;
#X connect 9 0 10 0;
#X connect 10 0 8 1;
#X connect 12 0 3 0;
#X connect 12 1 7 0;
#X connect 12 1 5 0;
#X connect 12 1 24 0;
#X connect 13 0 20 0;
#X connect 15 0 4 0;
#X connect 16 0 17 0;
#X connect 17 0 13 0;
#X connect 17 0 10 0;
#X connect 17 0 15 0;
#X connect 18 0 21 0;
#X connect 19 0 18 0;
#X connect 20 0 18 0;
#X connect 23 0 2 0;
#X restore 99 499 pd intro_logic;
#N canvas 577 100 351 116 load_col1 0;
#X obj 32 52 soundfiler;
#X obj 31 76 outlet;
#X obj 32 -3 inlet;
#X obj 241 55 table col1;
#X msg 32 25 read -resize 01col.wav col1;
#X connect 0 0 1 0;
#X connect 2 0 4 0;
#X connect 4 0 0 0;
#X restore 713 99 pd load_col1;
#N canvas 577 100 351 116 load_lat1 0;
#X obj 32 52 soundfiler;
#X obj 31 76 outlet;
#X obj 32 -3 inlet;
#X obj 241 55 table 01lat;
#X msg 32 25 read -resize 01lat.wav 01lat;
#X connect 0 0 1 0;
#X connect 2 0 4 0;
#X connect 4 0 0 0;
#X restore 732 129 pd load_lat1;
#X obj 397 596 dac~ 1 2;
#X msg 396 538 start;
#X obj 396 562 cyclone/play~ 01lat;
#X obj 396 435 r lat;
#X obj 335 200 s lat;
#X obj 827 299 noise~;
#X obj 827 326 bob~ 200 5;
#X obj 819 409 dac~;
#X obj 935 210 hsl 128 15 0 127 0 0 empty empty empty -2 -8 0 10 -262144
-1 -1 83 1;
#X obj 881 297 mtof~;
#X obj 824 377 *~ 0;
#X obj 869 375 / 127;
#X obj 59 163 route shoe1;
#X obj 58 200 unpack f f f f;
#X floatatom 179 230 5 0 0 0 - - -, f 5;
#X obj 180 277 s accel;
#X obj 931 117 r accel;
#X msg 932 231 \$1 10;
#X obj 932 257 line;
#X obj 931 164 line;
#X msg 931 140 \$1 40;
#X obj 931 187 scale 0 20 0 127;
#X text 338 84 outside;
#X text 228 87 inside;
#X obj 233 198 s medial;
#X obj 450 197 s top;
#X obj 226 439 r top;
#N canvas 577 100 351 116 load_01ton 0;
#X obj 32 52 soundfiler;
#X obj 31 76 outlet;
#X obj 32 -3 inlet;
#X msg 32 25 read -resize 01ton.wav 01ton;
#X obj 241 55 table 01ton;
#X connect 0 0 1 0;
#X connect 2 0 3 0;
#X connect 3 0 0 0;
#X restore 743 157 pd load_01ton;
#X obj 226 566 cyclone/play~ 01ton;
#X obj 570 600 dac~ 1 2;
#X msg 569 542 start;
#X obj 569 439 r medial;
#X obj 569 566 cyclone/play~ medial;
#X obj 569 252 vsl 15 128 0 127 0 0 empty empty empty 0 -9 0 10 -262144
-1 -1 262 1;
#X obj 569 217 cyclone/scale 0 180 0 127;
#X floatatom 591 182 5 0 0 0 - - -, f 5;
#X text 510 194 shoe is turning upside down;
#X obj 568 32 r roll;
#X obj 568 158 line;
#X obj 568 112 spigot;
#X obj 568 90 t f f;
#X obj 622 90 > 1;
#X msg 568 135 \$1 200;
#X obj 568 65 abs;
#X obj 335 117 > 30;
#X obj 485 245 < 90;
#X obj 335 170 spigot;
#X obj 485 275 s upsiding;
#X obj 368 145 r upsiding;
#X obj 233 167 spigot;
#X obj 266 142 r upsiding;
#N canvas 577 100 351 116 load_01sol 0;
#X obj 32 52 soundfiler;
#X obj 31 76 outlet;
#X obj 32 -3 inlet;
#X obj 241 55 table 01sol;
#X msg 32 25 read -resize 01sol.wav 01sol;
#X connect 0 0 1 0;
#X connect 2 0 4 0;
#X connect 4 0 0 0;
#X restore 763 180 pd load_01sol;
#X obj 732 596 dac~ 1 2;
#X msg 731 538 start;
#X obj 731 435 r bottom;
#X obj 731 562 cyclone/play~ 01sol;
#X obj 613 255 > 115;
#X obj 613 285 tgl 15 0 empty empty empty 17 7 0 10 -262144 -1 -1 0
1;
#X obj 613 308 s bottom;
#N canvas 0 50 866 573 exclusive_logic_2 0;
#X obj 173 316 bng 15 250 50 0 empty empty empty 17 7 0 10 -262144
-1 -1;
#X msg 244 276 0;
#X obj 146 178 spigot;
#X obj 228 93 loadbang;
#X msg 228 126 1;
#X floatatom 68 151 5 0 0 0 - - -, f 5;
#X obj 173 348 outlet;
#X obj 159 8 inlet;
#X obj 331 369 bng 15 250 50 0 empty empty empty 17 7 0 10 -262144
-1 -1;
#X obj 146 209 t b b;
#X obj 334 213 t b b;
#X text 352 365 time passed with no triggers;
#X obj 406 150 r trigger_3;
#X obj 483 151 r trigger_4;
#X obj 555 150 r trigger_5;
#X obj 14 293 s trigger_2;
#X obj 329 150 r trigger_1;
#X obj 335 261 delay 2000;
#X obj 159 62 sel 1 0;
#X connect 0 0 6 0;
#X connect 1 0 2 1;
#X connect 2 0 9 0;
#X connect 3 0 4 0;
#X connect 4 0 2 1;
#X connect 7 0 5 0;
#X connect 7 0 18 0;
#X connect 9 0 1 0;
#X connect 9 0 15 0;
#X connect 9 1 0 0;
#X connect 10 0 17 0;
#X connect 10 1 1 0;
#X connect 12 0 10 0;
#X connect 13 0 10 0;
#X connect 14 0 10 0;
#X connect 16 0 10 0;
#X connect 17 0 4 0;
#X connect 17 0 8 0;
#X connect 18 0 2 0;
#X restore 226 478 pd exclusive_logic_2;
#N canvas 884 49 866 573 exclusive_logic_3 0;
#X obj 173 316 bng 15 250 50 0 empty empty empty 17 7 0 10 -262144
-1 -1;
#X msg 221 174 0;
#X obj 146 178 spigot;
#X obj 228 93 loadbang;
#X msg 228 126 1;
#X floatatom 68 151 5 0 0 0 - - -, f 5;
#X obj 173 348 outlet;
#X obj 159 8 inlet;
#X obj 331 369 bng 15 250 50 0 empty empty empty 17 7 0 10 -262144
-1 -1;
#X obj 146 209 t b b;
#X obj 331 203 t b b;
#X text 352 365 time passed with no triggers;
#X obj 483 151 r trigger_4;
#X obj 555 150 r trigger_5;
#X obj 329 150 r trigger_1;
#X obj 331 232 delay 2000;
#X obj 406 150 r trigger_2;
#X obj 14 293 s trigger_3;
#X obj 159 62 sel 1 0;
#X connect 0 0 6 0;
#X connect 1 0 2 1;
#X connect 2 0 9 0;
#X connect 3 0 4 0;
#X connect 4 0 2 1;
#X connect 7 0 5 0;
#X connect 7 0 18 0;
#X connect 9 0 1 0;
#X connect 9 0 17 0;
#X connect 9 1 0 0;
#X connect 10 0 15 0;
#X connect 10 1 1 0;
#X connect 12 0 10 0;
#X connect 13 0 10 0;
#X connect 14 0 10 0;
#X connect 15 0 4 0;
#X connect 15 0 8 0;
#X connect 16 0 10 0;
#X connect 18 0 2 0;
#X restore 395 477 pd exclusive_logic_3;
#N canvas 792 63 866 573 exclusive_logic_4 0;
#X obj 173 316 bng 15 250 50 0 empty empty empty 17 7 0 10 -262144
-1 -1;
#X msg 221 174 0;
#X obj 146 178 spigot;
#X obj 228 93 loadbang;
#X msg 228 126 1;
#X floatatom 68 151 5 0 0 0 - - -, f 5;
#X obj 173 348 outlet;
#X obj 159 8 inlet;
#X obj 331 369 bng 15 250 50 0 empty empty empty 17 7 0 10 -262144
-1 -1;
#X obj 146 209 t b b;
#X obj 331 203 t b b;
#X text 352 365 time passed with no triggers;
#X obj 555 150 r trigger_5;
#X obj 329 150 r trigger_1;
#X obj 331 232 delay 2000;
#X obj 406 150 r trigger_2;
#X obj 483 151 r trigger_3;
#X obj 14 293 s trigger_4;
#X obj 159 62 sel 1 0;
#X connect 0 0 6 0;
#X connect 1 0 2 1;
#X connect 2 0 9 0;
#X connect 3 0 4 0;
#X connect 4 0 2 1;
#X connect 7 0 5 0;
#X connect 7 0 18 0;
#X connect 9 0 1 0;
#X connect 9 0 17 0;
#X connect 9 1 0 0;
#X connect 10 0 14 0;
#X connect 10 1 1 0;
#X connect 12 0 10 0;
#X connect 13 0 10 0;
#X connect 14 0 4 0;
#X connect 14 0 8 0;
#X connect 15 0 10 0;
#X connect 16 0 10 0;
#X connect 18 0 2 0;
#X restore 570 479 pd exclusive_logic_4;
#N canvas 0 50 866 573 exclusive_logic_5 0;
#X obj 173 316 bng 15 250 50 0 empty empty empty 17 7 0 10 -262144
-1 -1;
#X msg 221 174 0;
#X obj 146 178 spigot;
#X obj 228 93 loadbang;
#X msg 228 126 1;
#X floatatom 68 151 5 0 0 0 - - -, f 5;
#X obj 173 348 outlet;
#X obj 159 8 inlet;
#X obj 331 369 bng 15 250 50 0 empty empty empty 17 7 0 10 -262144
-1 -1;
#X obj 146 209 t b b;
#X obj 331 203 t b b;
#X text 352 365 time passed with no triggers;
#X obj 329 150 r trigger_1;
#X obj 331 232 delay 2000;
#X obj 406 150 r trigger_2;
#X obj 483 151 r trigger_3;
#X obj 555 150 r trigger_4;
#X obj 14 293 s trigger_5;
#X obj 159 62 sel 1 0;
#X connect 0 0 6 0;
#X connect 1 0 2 1;
#X connect 2 0 9 0;
#X connect 3 0 4 0;
#X connect 4 0 2 1;
#X connect 7 0 5 0;
#X connect 7 0 18 0;
#X connect 9 0 1 0;
#X connect 9 0 17 0;
#X connect 9 1 0 0;
#X connect 10 0 13 0;
#X connect 10 1 1 0;
#X connect 12 0 10 0;
#X connect 13 0 4 0;
#X connect 13 0 8 0;
#X connect 14 0 10 0;
#X connect 15 0 10 0;
#X connect 16 0 10 0;
#X connect 18 0 2 0;
#X restore 729 479 pd exclusive_logic_5;
#X obj 450 77 abs;
#X obj 450 170 spigot;
#X obj 474 136 r upsiding;
#X obj 450 107 > 15;
#X obj 233 112 < -20;
#X obj 225 512 delay 500;
#X obj 395 509 delay 500;
#X obj 567 512 delay 500;
#X obj 728 509 delay 500;
#X connect 0 0 4 0;
#X connect 1 0 0 0;
#X connect 2 0 1 0;
#X connect 4 0 43 0;
#X connect 7 0 80 0;
#X connect 8 0 77 0;
#X connect 10 0 2 0;
#X connect 11 0 75 0;
#X connect 11 0 98 0;
#X connect 14 0 94 0;
#X connect 15 0 95 0;
#X connect 17 0 19 0;
#X connect 17 0 19 1;
#X connect 18 0 24 0;
#X connect 18 0 25 0;
#X connect 18 0 29 0;
#X connect 18 0 30 0;
#X connect 18 0 58 0;
#X connect 18 0 82 0;
#X connect 20 0 17 0;
#X connect 23 0 28 0;
#X connect 27 0 59 0;
#X connect 28 0 20 0;
#X connect 32 0 33 0;
#X connect 33 0 31 0;
#X connect 33 0 31 1;
#X connect 34 0 91 0;
#X connect 36 0 37 0;
#X connect 39 0 48 0;
#X connect 40 0 37 1;
#X connect 41 0 38 0;
#X connect 41 0 38 1;
#X connect 42 0 41 1;
#X connect 43 0 44 0;
#X connect 44 0 3 0;
#X connect 44 0 12 0;
#X connect 44 1 5 0;
#X connect 44 1 13 0;
#X connect 44 2 6 0;
#X connect 44 2 9 0;
#X connect 44 3 45 0;
#X connect 44 3 46 0;
#X connect 47 0 51 0;
#X connect 48 0 49 0;
#X connect 49 0 40 0;
#X connect 49 0 42 0;
#X connect 50 0 52 0;
#X connect 51 0 50 0;
#X connect 52 0 39 0;
#X connect 57 0 90 0;
#X connect 59 0 26 0;
#X connect 59 0 26 1;
#X connect 61 0 63 0;
#X connect 62 0 92 0;
#X connect 63 0 60 0;
#X connect 63 0 60 1;
#X connect 65 0 64 0;
#X connect 68 0 74 0;
#X connect 69 0 66 0;
#X connect 69 0 65 0;
#X connect 69 0 76 0;
#X connect 69 0 87 0;
#X connect 70 0 73 0;
#X connect 71 0 70 0;
#X connect 71 1 72 0;
#X connect 72 0 70 1;
#X connect 73 0 69 0;
#X connect 74 0 71 0;
#X connect 75 0 8 0;
#X connect 76 0 78 0;
#X connect 77 0 35 0;
#X connect 79 0 77 1;
#X connect 80 0 55 0;
#X connect 81 0 80 1;
#X connect 84 0 86 0;
#X connect 85 0 93 0;
#X connect 86 0 83 0;
#X connect 86 0 83 1;
#X connect 87 0 88 0;
#X connect 88 0 89 0;
#X connect 90 0 99 0;
#X connect 91 0 100 0;
#X connect 92 0 101 0;
#X connect 93 0 102 0;
#X connect 94 0 97 0;
#X connect 95 0 56 0;
#X connect 96 0 95 1;
#X connect 97 0 15 0;
#X connect 98 0 7 0;
#X connect 99 0 27 0;
#X connect 100 0 32 0;
#X connect 101 0 61 0;
#X connect 102 0 84 0;
